<svg width="81" height="70" viewBox="0 0 81 70" fill="none" xmlns="http://www.w3.org/2000/svg">
<circle cx="60.6666" cy="32" r="18" fill="#C7A9FF"/>
<path d="M61.3333 35.5832V40.5417C61.3333 49.7292 56.0833 53.6667 48.2083 53.6667H21.9583C14.0833 53.6667 8.83334 49.7292 8.83334 40.5417V24.7916C8.83334 15.6041 14.0833 11.6666 21.9583 11.6666H29.8333C29.4542 12.775 29.25 14 29.25 15.3125V26.6875C29.25 29.5167 30.1833 31.9083 31.8458 33.5708C33.5083 35.2333 35.9 36.1667 38.7292 36.1667V40.2209C38.7292 41.7084 40.4208 42.6123 41.675 41.7957L50.1042 36.1667H57.6875C59 36.1667 60.225 35.9623 61.3333 35.5832Z" stroke="#5313CA" stroke-width="4" stroke-miterlimit="10" stroke-linecap="round" stroke-linejoin="round"/>
<path d="M67.1667 15.3125V26.6876C67.1667 31.0334 64.95 34.2999 61.3333 35.5832C60.225 35.9624 59 36.1668 57.6875 36.1668H50.1042L41.675 41.7957C40.4208 42.6124 38.7292 41.7085 38.7292 40.221V36.1668C35.9 36.1668 33.5083 35.2334 31.8458 33.5709C30.1833 31.9084 29.25 29.5168 29.25 26.6876V15.3125C29.25 14 29.4542 12.775 29.8333 11.6667C31.1167 8.05004 34.3833 5.83337 38.7292 5.83337H57.6875C63.375 5.83337 67.1667 9.62504 67.1667 15.3125Z" stroke="#5313CA" stroke-width="4" stroke-miterlimit="10" stroke-linecap="round" stroke-linejoin="round"/>
<path d="M24.5833 64.1666H45.5833" stroke="#5313CA" stroke-width="4" stroke-miterlimit="10" stroke-linecap="round" stroke-linejoin="round"/>
<path d="M35.0833 53.6667V64.1667" stroke="#5313CA" stroke-width="4" stroke-miterlimit="10" stroke-linecap="round" stroke-linejoin="round"/>
<path d="M56.9452 21.1458H56.9715" stroke="#5313CA" stroke-width="4" stroke-linecap="round" stroke-linejoin="round"/>
<path d="M48.7791 21.1458H48.8054" stroke="#5313CA" stroke-width="4" stroke-linecap="round" stroke-linejoin="round"/>
<path d="M40.6116 21.1458H40.6378" stroke="#5313CA" stroke-width="4" stroke-linecap="round" stroke-linejoin="round"/>
</svg>
