<svg width="80" height="70" viewBox="0 0 80 70" fill="none" xmlns="http://www.w3.org/2000/svg">
<circle cx="60" cy="26" r="18" fill="#C7A9FF"/>
<path d="M10.75 26.2499C13.9717 26.2499 16.5834 23.6382 16.5834 20.4166C16.5834 17.1949 13.9717 14.5833 10.75 14.5833C7.52836 14.5833 4.91669 17.1949 4.91669 20.4166C4.91669 23.6382 7.52836 26.2499 10.75 26.2499Z" stroke="#5313CA" stroke-width="4" stroke-miterlimit="10" stroke-linecap="round" stroke-linejoin="round"/>
<path d="M63.25 26.2499C66.4717 26.2499 69.0834 23.6382 69.0834 20.4166C69.0834 17.1949 66.4717 14.5833 63.25 14.5833C60.0284 14.5833 57.4167 17.1949 57.4167 20.4166C57.4167 23.6382 60.0284 26.2499 63.25 26.2499Z" stroke="#5313CA" stroke-width="4" stroke-miterlimit="10" stroke-linecap="round" stroke-linejoin="round"/>
<path d="M57.4167 20.4166H45.75" stroke="#5313CA" stroke-width="4" stroke-miterlimit="10" stroke-linecap="round" stroke-linejoin="round"/>
<path d="M28.25 20.4166H16.5834" stroke="#5313CA" stroke-width="4" stroke-miterlimit="10" stroke-linecap="round" stroke-linejoin="round"/>
<path d="M23.875 48.125V53.9583C23.875 55.7375 22.7959 57.2833 21.2792 57.925C20.725 58.1875 20.1417 58.3333 19.5 58.3333H13.6667C11.2459 58.3333 9.29169 56.3792 9.29169 53.9583V48.125C9.29169 45.7042 11.2459 43.75 13.6667 43.75H19.5C21.9209 43.75 23.875 45.7042 23.875 48.125Z" stroke="#5313CA" stroke-width="4" stroke-miterlimit="10" stroke-linecap="round" stroke-linejoin="round"/>
<path d="M64.7083 48.125V53.9583C64.7083 56.3792 62.7542 58.3333 60.3333 58.3333H54.5C53.8583 58.3333 53.275 58.1875 52.7208 57.925C51.2042 57.2833 50.125 55.7375 50.125 53.9583V48.125C50.125 45.7042 52.0792 43.75 54.5 43.75H60.3333C62.7542 43.75 64.7083 45.7042 64.7083 48.125Z" stroke="#5313CA" stroke-width="4" stroke-miterlimit="10" stroke-linecap="round" stroke-linejoin="round"/>
<path d="M45.75 16.0416V24.7916C45.75 27.1833 43.7667 29.1666 41.375 29.1666H32.625C30.2333 29.1666 28.25 27.1833 28.25 24.7916V16.0416C28.25 13.65 30.2333 11.6666 32.625 11.6666H41.375C43.7667 11.6666 45.75 13.65 45.75 16.0416Z" stroke="#5313CA" stroke-width="4" stroke-miterlimit="10" stroke-linecap="round" stroke-linejoin="round"/>
<path d="M45.75 22.5458C52.6625 26.0458 57.4167 33.5708 57.4167 42.2917C57.4167 42.7875 57.3875 43.2542 57.3292 43.75" stroke="#5313CA" stroke-width="4" stroke-miterlimit="10" stroke-linecap="round" stroke-linejoin="round"/>
<path d="M16.6709 43.75C16.6125 43.2542 16.5834 42.7875 16.5834 42.2917C16.5834 33.5708 21.3375 26.0458 28.25 22.5458" stroke="#5313CA" stroke-width="4" stroke-miterlimit="10" stroke-linecap="round" stroke-linejoin="round"/>
</svg>
