<svg width="81" height="70" viewBox="0 0 81 70" fill="none" xmlns="http://www.w3.org/2000/svg">
<circle cx="60.3334" cy="26" r="18" fill="#C7A9FF"/>
<path d="M36.2417 51.7708H53.5083C53.2458 52.0041 52.9833 52.2083 52.7208 52.4416L40.2666 61.7749C36.1541 64.8374 29.4458 64.8374 25.3042 61.7749L12.8208 52.4416C10.0792 50.4 7.83331 45.8791 7.83331 42.4666V20.8541C7.83331 17.2957 10.5458 13.3582 13.8708 12.1041L28.3958 6.64993C30.7875 5.74576 34.7542 5.74576 37.1458 6.64993L51.6417 12.1041C54.4125 13.1541 56.775 16.0708 57.5041 19.0458H36.2125C35.5708 19.0458 34.9875 19.075 34.4333 19.075C29.0375 19.3958 27.6375 21.3499 27.6375 27.5041V43.3416C27.6666 50.0499 29.3875 51.7708 36.2417 51.7708Z" stroke="#5313CA" stroke-width="4" stroke-linecap="round" stroke-linejoin="round"/>
<path d="M27.6666 32.725H66.1666" stroke="#5313CA" stroke-width="4" stroke-miterlimit="10" stroke-linecap="round" stroke-linejoin="round"/>
<path d="M66.1666 27.4751V43.6625C66.1083 50.1375 64.3291 51.7417 57.5916 51.7417H36.2416C29.3875 51.7417 27.6666 50.0208 27.6666 43.2833V27.4459C27.6666 21.3209 29.0666 19.3667 34.4625 19.0167C35.0166 19.0167 35.6 18.9875 36.2416 18.9875H57.5916C64.4458 19.0167 66.1666 20.7084 66.1666 27.4751Z" stroke="#5313CA" stroke-width="4" stroke-linecap="round" stroke-linejoin="round"/>
<path d="M35.0167 44.5083H38.8958" stroke="#5313CA" stroke-width="4" stroke-miterlimit="10" stroke-linecap="round" stroke-linejoin="round"/>
<path d="M45.0208 44.5083H54.5583" stroke="#5313CA" stroke-width="4" stroke-miterlimit="10" stroke-linecap="round" stroke-linejoin="round"/>
</svg>
